<svg width="16" height="16" viewBox="0 0 16 16" fill="none" xmlns="http://www.w3.org/2000/svg"><circle cx="7.98792" cy="7.98792" r="7.98792" fill="#E9F8FF"/><mask id="mask0_916_11715" style="mask-type:alpha" maskUnits="userSpaceOnUse" x="0" y="0" width="16" height="16"><circle cx="7.98792" cy="7.98792" r="7.98792" fill="white"/></mask><g mask="url(#mask0_916_11715)"><circle cx="7.98792" cy="7.98792" r="7.48943" fill="#F8F8F8" stroke="#7FD2FF" stroke-width="0.996981"/><path fill-rule="evenodd" clip-rule="evenodd" d="M11.9821 1.07034C11.9642 1.05983 11.9462 1.04938 11.9282 1.03898C8.13748 -1.14962 3.2763 0.173352 1.07049 3.99392C-1.13531 7.81448 0.149553 12.6859 3.94032 14.8745C3.95832 14.8849 3.97635 14.8952 3.99439 14.9054L11.9821 1.07034Z" fill="white" fill-opacity="0.35"/></g><path fill-rule="evenodd" clip-rule="evenodd" d="M7.92024 13.6797L1.96353 8.20108L4.23879 4.27344L11.6017 4.27344L13.877 8.20108L7.92024 13.6797Z" fill="url(#paint0_linear_916_11715)"/><mask id="mask1_916_11715" style="mask-type:alpha" maskUnits="userSpaceOnUse" x="1" y="4" width="13" height="10"><path fill-rule="evenodd" clip-rule="evenodd" d="M7.92024 13.6797L1.96353 8.20108L4.23879 4.27344L11.6017 4.27344L13.877 8.20108L7.92024 13.6797Z" fill="white"/></mask><g mask="url(#mask1_916_11715)"><path fill-rule="evenodd" clip-rule="evenodd" d="M7.92035 15.2656L15.952 8.14425H-0.111328L7.92035 15.2656ZM14.3549 8.75041L7.92035 14.4559L1.4855 8.75041H14.3549Z" fill="white"/><path fill-rule="evenodd" clip-rule="evenodd" d="M7.92062 0.666504L2.83148 17.4032H13.0098L7.92062 0.666504ZM3.6491 16.7971L7.92062 2.74957L12.1924 16.7971H3.6491Z" fill="white"/></g><defs><linearGradient id="paint0_linear_916_11715" x1="0.327724" y1="9.96664" x2="6.96991" y2="16.3088" gradientUnits="userSpaceOnUse"><stop stop-color="#AADEF4"/><stop offset="1" stop-color="#5FC7FF"/></linearGradient></defs></svg>