<svg width="16" height="16" viewBox="0 0 16 16" fill="none" xmlns="http://www.w3.org/2000/svg"><circle cx="7.98792" cy="7.98792" r="7.98792" fill="#E9F8FF"/><mask id="mask0_916_11716" style="mask-type:alpha" maskUnits="userSpaceOnUse" x="0" y="0" width="16" height="16"><circle cx="7.98792" cy="7.98792" r="7.98792" fill="white"/></mask><g mask="url(#mask0_916_11716)"><circle cx="7.98792" cy="7.98792" r="7.48943" fill="#FFE9AD" stroke="#F7B500" stroke-width="0.996981"/><path fill-rule="evenodd" clip-rule="evenodd" d="M7.98807 10.9872L5.17096 11.8655L5.13571 8.91486L3.42989 6.50702L6.22521 5.5617L7.98807 3.19531L9.75092 5.5617L12.5462 6.50702L10.8404 8.91486L10.8052 11.8655L7.98807 10.9872Z" fill="#FFC117"/><path fill-rule="evenodd" clip-rule="evenodd" d="M11.9821 1.07034C11.9642 1.05983 11.9462 1.04938 11.9282 1.03898C8.13748 -1.14962 3.2763 0.173352 1.07049 3.99392C-1.13531 7.81448 0.149553 12.6859 3.94032 14.8745C3.95832 14.8849 3.97635 14.8952 3.99439 14.9054L11.9821 1.07034Z" fill="white" fill-opacity="0.35"/></g></svg>